<svg width="22" height="28" viewBox="0 0 22 28" fill="none" xmlns="http://www.w3.org/2000/svg">
<path fill-rule="evenodd" clip-rule="evenodd" d="M0.880371 10.1196C0.880371 4.52095 5.40132 0 11 0C16.5986 0 21.1196 4.52773 21.1196 10.1262C21.1196 12.1122 20.5028 13.9423 19.6284 15.4742L13.0334 26.8816C12.5793 27.6271 11.7863 27.9999 11 27.9999C10.2137 27.9999 9.38003 27.6271 8.96657 26.8816L2.37154 15.4674C1.50395 13.9356 0.880371 12.0717 0.880371 10.1196ZM5.57296 7.73404C5.38904 6.3145 6.93964 5.57035 8.28797 6.05092L9.80313 6.59097C10.5988 6.87457 11.4639 6.89899 12.2743 6.66074L13.8175 6.20705C15.1908 5.80332 16.6969 6.63379 16.4332 8.04069C16.2733 8.89378 15.9137 9.69692 15.3839 10.3844C14.8542 11.0719 14.1692 11.6243 13.385 11.9964C12.6008 12.3684 11.7397 12.5496 10.8721 12.5251C10.0045 12.5006 9.15503 12.2711 8.3931 11.8554C7.63118 11.4397 6.97845 10.8496 6.4883 10.1333C5.99815 9.41695 5.68449 8.5948 5.57296 7.73404Z" fill="#7710DE"/>
</svg>
